<?xml version="1.0" encoding="UTF-8" standalone="no"?>
<!-- Created with Inkscape (http://www.inkscape.org/) -->

<svg
   xmlns:dc="http://purl.org/dc/elements/1.1/"
   xmlns:cc="http://creativecommons.org/ns#"
   xmlns:rdf="http://www.w3.org/1999/02/22-rdf-syntax-ns#"
   xmlns:svg="http://www.w3.org/2000/svg"
   xmlns="http://www.w3.org/2000/svg"
   xmlns:sodipodi="http://sodipodi.sourceforge.net/DTD/sodipodi-0.dtd"
   xmlns:inkscape="http://www.inkscape.org/namespaces/inkscape"
   width="514"
   height="514"
   id="svg2"
   version="1.1"
   inkscape:version="0.48.2 r9819"
   sodipodi:docname="logo.svg"
   inkscape:export-filename="D:\Users\tjhowse\reprap\models\OpenJoystick\Publicity\logo\logo.png"
   inkscape:export-xdpi="109.98145"
   inkscape:export-ydpi="109.98145">
  <defs
     id="defs4"><marker
   inkscape:stockid="Arrow1Mstart"
   orient="auto"
   refY="0"
   refX="0"
   id="Arrow1Mstart"
   style="overflow:visible">
  <path
     id="path4280"
     d="M 0,0 5,-5 -12.5,0 5,5 0,0 z"
     style="fill-rule:evenodd;stroke:#000000;stroke-width:1pt;marker-start:none"
     transform="matrix(0.4,0,0,0.4,4,0)"
     inkscape:connector-curvature="0" />
</marker>
<marker
   inkscape:stockid="Arrow1Lstart"
   orient="auto"
   refY="0"
   refX="0"
   id="Arrow1Lstart"
   style="overflow:visible">
  <path
     id="path4274"
     d="M 0,0 5,-5 -12.5,0 5,5 0,0 z"
     style="fill-rule:evenodd;stroke:#000000;stroke-width:1pt;marker-start:none"
     transform="matrix(0.8,0,0,0.8,10,0)"
     inkscape:connector-curvature="0" />
</marker>
<marker
   inkscape:stockid="StopL"
   orient="auto"
   refY="0"
   refX="0"
   id="StopL"
   style="overflow:visible">
  <path
     id="path4444"
     d="M 0,5.65 0,-5.65"
     style="fill:none;stroke:#000000;stroke-width:1pt"
     transform="scale(0.8,0.8)"
     inkscape:connector-curvature="0" />
</marker>
<marker
   inkscape:stockid="StopM"
   orient="auto"
   refY="0"
   refX="0"
   id="StopM"
   style="overflow:visible">
  <path
     id="path4447"
     d="M 0,5.65 0,-5.65"
     style="fill:none;stroke:#000000;stroke-width:1pt"
     transform="scale(0.4,0.4)"
     inkscape:connector-curvature="0" />
</marker>
<marker
   style="overflow:visible"
   id="DistanceStart"
   refX="0"
   refY="0"
   orient="auto"
   inkscape:stockid="DistanceStart">
  <g
     id="g2300">
    <path
       style="fill:none;stroke:#ffffff;stroke-width:1.14999998;stroke-linecap:square"
       d="M 0,0 2,0"
       id="path2306"
       inkscape:connector-curvature="0" />
    <path
       style="fill:#000000;fill-rule:evenodd;stroke:none"
       d="M 0,0 13,4 9,0 13,-4 0,0 z"
       id="path2302"
       inkscape:connector-curvature="0" />
    <path
       style="fill:none;stroke:#000000;stroke-width:1;stroke-linecap:square"
       d="M 0,-4 0,40"
       id="path2304"
       inkscape:connector-curvature="0" />
  </g>
</marker>
<marker
   style="overflow:visible"
   id="DistanceEnd"
   refX="0"
   refY="0"
   orient="auto"
   inkscape:stockid="DistanceEnd">
  <g
     id="g4330">
    <path
       style="fill:none;stroke:#ffffff;stroke-width:1.14999998;stroke-linecap:square"
       d="M 0,0 -2,0"
       id="path2316"
       inkscape:connector-curvature="0" />
    <path
       style="fill:#000000;fill-rule:evenodd;stroke:none"
       d="M 0,0 -13,4 -9,0 -13,-4 0,0 z"
       id="path2312"
       inkscape:connector-curvature="0" />
    <path
       style="fill:none;stroke:#000000;stroke-width:1;stroke-linecap:square"
       d="M 0,-4 0,40"
       id="path2314"
       inkscape:connector-curvature="0" />
  </g>
</marker>
<marker
   inkscape:stockid="Arrow2Mend"
   orient="auto"
   refY="0"
   refX="0"
   id="Arrow2Mend"
   style="overflow:visible">
  <path
     id="path4301"
     style="font-size:12px;fill-rule:evenodd;stroke-width:0.625;stroke-linejoin:round"
     d="M 8.7185878,4.0337352 -2.2072895,0.01601326 8.7185884,-4.0017078 c -1.7454984,2.3720609 -1.7354408,5.6174519 -6e-7,8.035443 z"
     transform="scale(-0.6,-0.6)"
     inkscape:connector-curvature="0" />
</marker>
<marker
   inkscape:stockid="Arrow1Mend"
   orient="auto"
   refY="0"
   refX="0"
   id="Arrow1Mend"
   style="overflow:visible">
  <path
     id="path4283"
     d="M 0,0 5,-5 -12.5,0 5,5 0,0 z"
     style="fill-rule:evenodd;stroke:#000000;stroke-width:1pt;marker-start:none"
     transform="matrix(-0.4,0,0,-0.4,-4,0)"
     inkscape:connector-curvature="0" />
</marker>
<inkscape:perspective
   sodipodi:type="inkscape:persp3d"
   inkscape:vp_x="3.5714286 : 786.18109 : 1"
   inkscape:vp_y="0 : 1000 : 0"
   inkscape:vp_z="744.09448 : 526.18109 : 1"
   inkscape:persp3d-origin="372.04724 : 350.78739 : 1"
   id="perspective3231" />

	

		
		
		
		
	<marker
   inkscape:stockid="Arrow2Mend"
   orient="auto"
   refY="0"
   refX="0"
   id="Arrow2Mend-2"
   style="overflow:visible">
  <path
     inkscape:connector-curvature="0"
     id="path4301-4"
     style="font-size:12px;fill-rule:evenodd;stroke-width:0.625;stroke-linejoin:round"
     d="M 8.7185878,4.0337352 -2.2072895,0.01601326 8.7185884,-4.0017078 c -1.7454984,2.3720609 -1.7354408,5.6174519 -6e-7,8.035443 z"
     transform="scale(-0.6,-0.6)" />
</marker>
<marker
   inkscape:stockid="Arrow2Mend"
   orient="auto"
   refY="0"
   refX="0"
   id="Arrow2Mend-5"
   style="overflow:visible">
  <path
     inkscape:connector-curvature="0"
     id="path4301-1"
     style="font-size:12px;fill-rule:evenodd;stroke-width:0.625;stroke-linejoin:round"
     d="M 8.7185878,4.0337352 -2.2072895,0.01601326 8.7185884,-4.0017078 c -1.7454984,2.3720609 -1.7354408,5.6174519 -6e-7,8.035443 z"
     transform="scale(-0.6,-0.6)" />
</marker>
</defs>
  <sodipodi:namedview
     id="base"
     pagecolor="#ffffff"
     bordercolor="#666666"
     borderopacity="1.0"
     inkscape:pageopacity="0.0"
     inkscape:pageshadow="2"
     inkscape:zoom="0.98994949"
     inkscape:cx="188.40039"
     inkscape:cy="340.59959"
     inkscape:document-units="px"
     inkscape:current-layer="layer1"
     showgrid="false"
     inkscape:window-width="1920"
     inkscape:window-height="1148"
     inkscape:window-x="1672"
     inkscape:window-y="-8"
     inkscape:window-maximized="1" />
  <metadata
     id="metadata7">
    <rdf:RDF>
      <cc:Work
         rdf:about="">
        <dc:format>image/svg+xml</dc:format>
        <dc:type
           rdf:resource="http://purl.org/dc/dcmitype/StillImage" />
        <dc:title></dc:title>
      </cc:Work>
    </rdf:RDF>
  </metadata>
  <g
     inkscape:label="Layer 1"
     inkscape:groupmode="layer"
     id="layer1"
     transform="translate(0,-538.36218)">
    <path
       sodipodi:type="arc"
       style="fill:none;stroke:#000000;stroke-width:10;stroke-miterlimit:4;stroke-opacity:1;stroke-dasharray:none"
       id="path4029"
       sodipodi:cx="346.42856"
       sodipodi:cy="387.00504"
       sodipodi:rx="123.57143"
       sodipodi:ry="41.785713"
       d="m 469.99998,387.00504 a 123.57143,41.785713 0 1 1 -247.14285,0 123.57143,41.785713 0 1 1 247.14285,0 z"
       transform="translate(-78.614973,546.25015)" />
    <path
       sodipodi:type="arc"
       style="fill:none;stroke:#000000;stroke-width:10;stroke-miterlimit:4;stroke-opacity:1;stroke-dasharray:none"
       id="path4035"
       sodipodi:cx="371.42856"
       sodipodi:cy="255.93361"
       sodipodi:rx="52.142857"
       sodipodi:ry="21.428572"
       d="m 423.57141,255.93361 a 52.142857,21.428572 0 1 1 -104.28571,0 52.142857,21.428572 0 1 1 104.28571,0 z"
       transform="translate(-101.4721,407.67872)" />
    <path
       transform="translate(-101.4721,652.67873)"
       sodipodi:type="arc"
       style="fill:none;stroke:#000000;stroke-width:10;stroke-miterlimit:4;stroke-opacity:1;stroke-dasharray:none"
       id="path4035-8"
       sodipodi:cx="371.42856"
       sodipodi:cy="255.93361"
       sodipodi:rx="52.142857"
       sodipodi:ry="17.5"
       d="m 423.57141,255.93361 a 52.142857,17.5 0 1 1 -104.28571,0 52.142857,17.5 0 1 1 104.28571,0 z" />
    <path
       style="fill:none;stroke:#000000;stroke-width:10;stroke-linecap:butt;stroke-linejoin:miter;stroke-miterlimit:4;stroke-opacity:1;stroke-dasharray:none"
       d="m 217.85819,662.18376 c 0,244.28572 0,245.71429 0,245.71429"
       id="path4055"
       inkscape:connector-curvature="0" />
    <path
       style="fill:none;stroke:#000000;stroke-width:10;stroke-linecap:butt;stroke-linejoin:miter;stroke-miterlimit:4;stroke-opacity:1;stroke-dasharray:none"
       d="m 322.09042,663.61233 0,245"
       id="path4057"
       inkscape:connector-curvature="0" />
    <g
       id="g4715"
       transform="translate(-63.367323,497.79151)">
      <path
         transform="matrix(0.88425704,-0.69836126,0.2898713,0.45919834,-127.5413,272.58301)"
         d="m 201.42857,324.50504 c 0,8.67876 -7.03553,15.71428 -15.71429,15.71428 -8.67876,0 -15.71429,-7.03552 -15.71429,-15.71428 0,-8.67877 7.03553,-15.71429 15.71429,-15.71429 8.67876,0 15.71429,7.03552 15.71429,15.71429 z"
         sodipodi:ry="15.714286"
         sodipodi:rx="15.714286"
         sodipodi:cy="324.50504"
         sodipodi:cx="185.71428"
         id="path4061"
         style="fill:none;stroke:#000000;stroke-width:5;stroke-miterlimit:4;stroke-opacity:1;stroke-dasharray:10, 5;stroke-dashoffset:0"
         sodipodi:type="arc" />
      <path
         inkscape:connector-curvature="0"
         id="path4063"
         d="m 143.99267,281.52457 c 40.35714,40.35714 40.35714,40.35714 40.35714,40.35714"
         style="fill:none;stroke:#000000;stroke-width:5;stroke-linecap:butt;stroke-linejoin:miter;stroke-miterlimit:4;stroke-opacity:1;stroke-dasharray:10, 5;stroke-dashoffset:0" />
      <path
         inkscape:connector-curvature="0"
         id="path4065"
         d="m 118.18895,303.57814 c 41.07143,41.07143 41.07143,41.07143 41.07143,41.07143"
         style="fill:none;stroke:#000000;stroke-width:5;stroke-linecap:butt;stroke-linejoin:miter;stroke-miterlimit:4;stroke-opacity:1;stroke-dasharray:10, 5;stroke-dashoffset:0" />
      <path
         transform="matrix(0.88425704,-0.69836126,0.2898713,0.45919834,-89.469873,311.22586)"
         d="m 201.42857,324.50504 c 0,8.67876 -7.03553,15.71428 -15.71429,15.71428 -8.67876,0 -15.71429,-7.03552 -15.71429,-15.71428 0,-8.67877 7.03553,-15.71429 15.71429,-15.71429 8.67876,0 15.71429,7.03552 15.71429,15.71429 z"
         sodipodi:ry="15.714286"
         sodipodi:rx="15.714286"
         sodipodi:cy="324.50504"
         sodipodi:cx="185.71428"
         id="path4061-8"
         style="fill:none;stroke:#000000;stroke-width:5;stroke-miterlimit:4;stroke-opacity:1;stroke-dasharray:10, 5;stroke-dashoffset:0"
         sodipodi:type="arc" />
    </g>
    <path
       style="fill:none;stroke:#000000;stroke-width:5;stroke-linecap:butt;stroke-linejoin:miter;stroke-miterlimit:4;stroke-opacity:1;stroke-dasharray:20, 5;stroke-dashoffset:0;marker-mid:none;marker-end:url(#Arrow2Mend)"
       d="m 124.01598,798.09513 c 32.32488,-29.79951 80.30713,-9.09138 80.30713,-9.09138"
       id="path4089"
       inkscape:connector-curvature="0"
       sodipodi:nodetypes="cc" />
    <path
       sodipodi:type="arc"
       style="fill:none;stroke:#000000;stroke-width:5;stroke-miterlimit:4;stroke-opacity:1;stroke-dasharray:20, 5;stroke-dashoffset:0"
       id="path5089"
       sodipodi:cx="240.41631"
       sodipodi:cy="180.60054"
       sodipodi:rx="41.416256"
       sodipodi:ry="46.467018"
       d="m 281.83256,180.60054 a 41.416256,46.467018 0 1 1 -82.83251,0 41.416256,46.467018 0 1 1 82.83251,0 z"
       transform="translate(-109.32926,408.39301)" />
    <path
       sodipodi:type="arc"
       style="fill:none;stroke:#000000;stroke-width:5;stroke-miterlimit:4;stroke-opacity:1;stroke-dasharray:20, 5;stroke-dashoffset:0"
       id="path5093"
       sodipodi:cx="256.42856"
       sodipodi:cy="169.14789"
       sodipodi:rx="10"
       sodipodi:ry="10"
       d="m 266.42856,169.14789 a 10,10 0 1 1 -20,0 10,10 0 1 1 20,0 z"
       transform="translate(-109.32926,408.39301)" />
    <path
       sodipodi:type="arc"
       style="fill:none;stroke:#000000;stroke-width:5;stroke-miterlimit:4;stroke-opacity:1;stroke-dasharray:20, 5;stroke-dashoffset:0"
       id="path5095"
       sodipodi:cx="257.32144"
       sodipodi:cy="198.25504"
       sodipodi:rx="7.6785712"
       sodipodi:ry="7.6785712"
       d="m 265.00001,198.25504 a 7.6785712,7.6785712 0 1 1 -15.35714,0 7.6785712,7.6785712 0 1 1 15.35714,0 z"
       transform="translate(-109.32926,408.39301)" />
    <path
       sodipodi:type="arc"
       style="fill:none;stroke:#000000;stroke-width:5;stroke-miterlimit:4;stroke-opacity:1;stroke-dasharray:20, 5;stroke-dashoffset:0"
       id="path5097"
       sodipodi:cx="224.64285"
       sodipodi:cy="197.71933"
       sodipodi:rx="11.071428"
       sodipodi:ry="11.071428"
       d="m 235.71428,197.71933 a 11.071428,11.071428 0 1 1 -22.14286,0 11.071428,11.071428 0 1 1 22.14286,0 z"
       transform="translate(-109.32926,408.39301)" />
    <path
       sodipodi:type="arc"
       style="fill:none;stroke:#000000;stroke-width:5;stroke-miterlimit:4;stroke-opacity:1;stroke-dasharray:20, 5;stroke-dashoffset:0"
       id="path5099"
       sodipodi:cx="222.85715"
       sodipodi:cy="165.21933"
       sodipodi:rx="9.6428576"
       sodipodi:ry="9.6428576"
       d="m 232.5,165.21933 a 9.6428576,9.6428576 0 1 1 -19.28571,0 9.6428576,9.6428576 0 1 1 19.28571,0 z"
       transform="translate(-109.32926,408.39301)" />
    <path
       style="fill:none;stroke:#000000;stroke-width:5;stroke-linecap:butt;stroke-linejoin:miter;stroke-miterlimit:4;stroke-opacity:1;stroke-dasharray:20, 5;stroke-dashoffset:0"
       d="m 130.67074,542.18376 c -85.661444,13.05797 -80.513534,88.916 -8.92857,92.14286"
       id="path5101"
       inkscape:connector-curvature="0"
       sodipodi:nodetypes="cc" />
    <path
       style="fill:none;stroke:#000000;stroke-width:5;stroke-linecap:butt;stroke-linejoin:miter;stroke-miterlimit:4;stroke-opacity:1;stroke-dasharray:20, 5;stroke-dashoffset:0;marker-mid:none;marker-end:url(#Arrow2Mend)"
       d="m 180.14632,587.64546 c 32.32488,-29.79951 70.30713,41.62291 70.30713,41.62291"
       id="path4089-5"
       inkscape:connector-curvature="0"
       sodipodi:nodetypes="cc" />
    <rect
       style="fill:none;stroke:#000000;stroke-width:5;stroke-miterlimit:4;stroke-opacity:1;stroke-dasharray:20, 5;stroke-dashoffset:0"
       id="rect5127"
       width="79.285713"
       height="70.714287"
       x="364.95645"
       y="552.18378" />
    <path
       style="fill:none;stroke:#000000;stroke-width:5;stroke-linecap:butt;stroke-linejoin:miter;stroke-miterlimit:4;stroke-opacity:1;stroke-dasharray:15, 5;stroke-dashoffset:0"
       d="m 444.95645,550.75519 c 22.58975,-9.78707 22.80266,-9.82668 22.80266,-9.82668 l -86.20449,0.0904 -15.71056,10.86902"
       id="path5129"
       inkscape:connector-curvature="0"
       sodipodi:nodetypes="cccc" />
    <path
       style="fill:none;stroke:#000000;stroke-width:5;stroke-linecap:butt;stroke-linejoin:miter;stroke-miterlimit:4;stroke-opacity:1;stroke-dasharray:15, 5;stroke-dashoffset:0"
       d="m 444.95645,622.89805 23.57143,-17.85714 -0.71428,-64.28572"
       id="path5131"
       inkscape:connector-curvature="0" />
    <path
       sodipodi:type="arc"
       style="fill:none;stroke:#000000;stroke-width:5;stroke-miterlimit:4;stroke-opacity:1;stroke-dasharray:15, 5;stroke-dashoffset:0"
       id="path5135"
       sodipodi:cx="517.70319"
       sodipodi:cy="176.81247"
       sodipodi:rx="21.213203"
       sodipodi:ry="20.960665"
       d="m 538.91639,176.81247 a 21.213203,20.960665 0 1 1 -42.42641,0 21.213203,20.960665 0 1 1 42.42641,0 z"
       transform="translate(-109.32926,408.39301)" />
    <path
       style="fill:none;stroke:#000000;stroke-width:5;stroke-linecap:butt;stroke-linejoin:miter;stroke-miterlimit:4;stroke-opacity:1;stroke-dasharray:20, 5;stroke-dashoffset:0;marker-mid:none;marker-end:url(#Arrow2Mend)"
       d="m 345.62044,567.63045 c -48.48733,-3.03047 -68.08377,59.30057 -68.08377,59.30057"
       id="path4089-5-7"
       inkscape:connector-curvature="0"
       sodipodi:nodetypes="cc" />
    <path
       sodipodi:type="arc"
       style="fill:none;stroke:#000000;stroke-width:5;stroke-miterlimit:4;stroke-opacity:1;stroke-dasharray:15, 5;stroke-dashoffset:0"
       id="path4035-1"
       sodipodi:cx="371.42856"
       sodipodi:cy="255.93361"
       sodipodi:rx="52.142857"
       sodipodi:ry="21.428572"
       d="m 423.57141,255.93361 a 52.142857,21.428572 0 1 1 -104.28571,0 52.142857,21.428572 0 1 1 104.28571,0 z"
       transform="translate(-101.4721,491.25015)" />
    <path
       style="fill:none;stroke:#000000;stroke-width:5;stroke-linecap:butt;stroke-linejoin:miter;stroke-miterlimit:4;stroke-opacity:1;stroke-dasharray:20, 5;stroke-dashoffset:0;marker-start:url(#Arrow1Mstart);marker-end:url(#Arrow1Mend)"
       d="m 406.70659,752.85212 c 0,140.14127 0,140.14127 0,140.14127"
       id="path5381"
       inkscape:connector-curvature="0"
       sodipodi:nodetypes="cc" />
    <path
       style="fill:none;stroke:#000000;stroke-width:5;stroke-linecap:butt;stroke-linejoin:miter;stroke-miterlimit:4;stroke-opacity:1;stroke-dasharray:15, 5;stroke-dashoffset:0"
       d="m 357.09931,741.61233 c 58.57143,0 59.28572,0 59.28572,0"
       id="path7412"
       inkscape:connector-curvature="0" />
    <path
       style="fill:none;stroke:#000000;stroke-width:5;stroke-linecap:butt;stroke-linejoin:miter;stroke-miterlimit:4;stroke-opacity:1;stroke-dasharray:15, 5;stroke-dashoffset:0"
       d="m 357.09931,905.04091 c 58.57143,0 59.28572,0 59.28572,0"
       id="path7412-1"
       inkscape:connector-curvature="0" />
    <flowRoot
       xml:space="preserve"
       id="flowRoot7432"
       style="font-size:40px;font-style:normal;font-weight:normal;line-height:125%;letter-spacing:0px;word-spacing:0px;fill:#000000;fill-opacity:1;stroke:none;font-family:Sans"><flowRegion
         id="flowRegion7434"><rect
           id="rect7436"
           width="495.71429"
           height="98.571426"
           x="150"
           y="576.64789" /></flowRegion><flowPara
         id="flowPara7438"></flowPara></flowRoot>    <text
       xml:space="preserve"
       style="font-size:60px;font-style:normal;font-variant:normal;font-weight:normal;font-stretch:normal;text-align:start;line-height:125%;letter-spacing:0px;word-spacing:0px;writing-mode:lr-tb;text-anchor:start;fill:#000000;fill-opacity:1;stroke:none;font-family:Sans;-inkscape-font-specification:Sans"
       x="83.52787"
       y="1039.3267"
       id="text7440"
       sodipodi:linespacing="125%"><tspan
         sodipodi:role="line"
         id="tspan7442"
         x="83.52787"
         y="1039.3267">OpenJoystick</tspan></text>
  </g>
</svg>
